#!OML:ASF H:\Dans Jumps\Project 1\Capture day 1\Session 1\subject.ASF
:FULLY-SPECIFIED
:DEGREES
110
root 0.58026 17.5363 -13.9668 5.11937 0.176263 -1.75186
lowerback -4.02927 -0.759975 0.846531
upperback 1.65007 -1.13153 1.83431
thorax 3.9827 -0.565721 1.33344
lowerneck -12.9477 -0.228335 -2.53528
upperneck 3.63684 0.0396673 0.936774
head 3.49301 0.0198261 0.766678
rclavicle -1.6847e-014 3.97569e-016
rhumerus -25.6887 -20.588 -79.0578
rradius 24.3969
rwrist 34.0792
rhand -17.018 -27.1289
rfingers 7.12502
rthumb 9.21795 -56.9074
lclavicle -1.6847e-014 3.97569e-016
lhumerus -23.1559 -2.28564 89.9304
lradius 19.5894
lwrist 3.11885
lhand -24.2682 -2.8511
lfingers 7.12502
lthumb 2.21838 27.1171
rfemur -10.9047 -3.11057 19.7462
rtibia 19.429
rfoot -13.0078 -2.03596
rtoes 3.45852
lfemur -9.56887 8.70507 -17.7541
ltibia 16.5873
lfoot -10.9384 2.8946
ltoes -6.9073
111
root 0.581167 17.5356 -13.9705 5.11559 0.190327 -1.75478
lowerback -3.98979 -0.765315 0.85565
upperback 1.65942 -1.13849 1.83244
thorax 3.96996 -0.568952 1.32632
lowerneck -12.9752 -0.229868 -2.54113
upperneck 3.70501 0.0397313 0.931353
head 3.52245 0.0190993 0.766458
rclavicle 1.88845e-015 -3.97569e-015
rhumerus -25.6647 -20.5874 -79.0575
rradius 24.3816
rwrist 34.0953
rhand -17.033 -27.1034
rfingers 7.12502
rthumb 9.20352 -56.8826
lclavicle 1.88845e-015 -3.97569e-015
lhumerus -23.171 -2.32419 89.9265
lradius 19.6225
lwrist 3.17999
lhand -24.2728 -2.86788
lfingers 7.12502
lthumb 2.21391 27.1004
rfemur -10.9237 -3.09771 19.7464
rtibia 19.4529
rfoot -13.0103 -2.05511
rtoes 3.46925
lfemur -9.60388 8.70206 -17.7562
ltibia 16.6317
lfoot -10.9495 2.88986
ltoes -6.91421
112
root 0.582103 17.5349 -13.9744 5.11211 0.205552 -1.75727
lowerback -3.94468 -0.77084 0.86505
upperback 1.66784 -1.14555 1.8304
thorax 3.95305 -0.572235 1.31895
lowerneck -13.0049 -0.228499 -2.54233
upperneck 3.78031 0.0432491 0.922199
head 3.55475 0.0199377 0.764451
rclavicle -2.09221e-014 1.86858e-014
rhumerus -25.6404 -20.5746 -79.0604
rradius 24.3693
rwrist 34.1021
rhand -17.0384 -27.0846
rfingers 7.12502
rthumb 9.19828 -56.864
lclavicle -2.09221e-014 1.86858e-014
lhumerus -23.1858 -2.37596 89.9249
lradius 19.6577
lwrist 3.25729
lhand -24.2799 -2.87058
lfingers 7.12502
lthumb 2.20702 27.0977
rfemur -10.945 -3.0814 19.7462
rtibia 19.4787
rfoot -13.0113 -2.08023
rtoes 3.46442
lfemur -9.64409 8.69813 -17.7589
ltibia 16.6831
lfoot -10.9624 2.88354
ltoes -6.9192
113
root 0.583019 17.5341 -13.9789 5.11115 0.220826 -1.75854
lowerback -3.89471 -0.775703 0.873193
upperback 1.6755 -1.15153 1.828
thorax 3.93261 -0.575007 1.31206
lowerneck -13.0378 -0.225884 -2.54325
upperneck 3.86307 0.048447 0.913623
head 3.59033 0.0215873 0.762766
rclavicle 3.97569e-016 -2.38542e-015
rhumerus -25.6161 -20.5583 -79.0642
rradius 24.3605
rwrist 34.1087
rhand -17.0351 -27.0656
rfingers 7.12502
rthumb 9.20147 -56.8448
lclavicle 3.97569e-016 -2.38542e-015
lhumerus -23.1961 -2.4385 89.9245
lradius 19.6917
lwrist 3.34361
lhand -24.2905 -2.86289
lfingers 7.12502
lthumb 2.19679 27.1055
rfemur -10.9734 -3.06118 19.7452
rtibia 19.5087
rfoot -13.01 -2.11149
rtoes 3.43605
lfemur -9.69237 8.69393 -17.7637
ltibia 16.7412
lfoot -10.976 2.87635
ltoes -6.91545
114
root 0.583961 17.5332 -13.9839 5.11473 0.235666 -1.75838
lowerback -3.8407 -0.779821 0.879983
upperback 1.68203 -1.15632 1.82568
thorax 3.90871 -0.57723 1.30616
lowerneck -13.076 -0.221928 -2.54011
upperneck 3.95607 0.0552852 0.900266
head 3.63055 0.023824 0.758953
rclavicle 9.93923e-017 -2.0276e-014
rhumerus -25.5903 -20.5416 -79.0664
rradius 24.3512
rwrist 34.1251
rhand -17.0329 -27.0375
rfingers 7.12502
rthumb 9.20355 -56.8167
lclavicle 9.93923e-017 -2.0276e-014
lhumerus -23.2001 -2.50396 89.9241
lradius 19.7223
lwrist 3.42908
lhand -24.2986 -2.86304
lfingers 7.12502
lthumb 2.18898 27.1055
rfemur -11.0123 -3.03647 19.7427
rtibia 19.5461
rfoot -13.0084 -2.14772
rtoes 3.3965
lfemur -9.7506 8.68599 -17.7713
ltibia 16.8043
lfoot -10.9871 2.8725
ltoes -6.90187
115
root 0.584934 17.5323 -13.9895 5.12163 0.253561 -1.75575
lowerback -3.78222 -0.784652 0.88495
upperback 1.68857 -1.16186 1.82316
thorax 3.88233 -0.579874 1.30109
lowerneck -13.1132 -0.218531 -2.5388
upperneck 4.05338 0.0617519 0.886048
head 3.67221 0.02576 0.755171
rclavicle 5.61567e-015 -1.74931e-014
rhumerus -25.5621 -20.526 -79.0677
rradius 24.3443
rwrist 34.1468
rhand -17.0354 -27.005
rfingers 7.12502
rthumb 9.20116 -56.7843
lclavicle 5.61567e-015 -1.74931e-014
lhumerus -23.1977 -2.56705 89.9225
lradius 19.75
lwrist 3.50559
lhand -24.3148 -2.86994
lfingers 7.12502
lthumb 2.17338 27.0987
rfemur -11.0619 -3.00936 19.7379
rtibia 19.5932
rfoot -13.0083 -2.19026
rtoes 3.343
lfemur -9.81801 8.67232 -17.7828
ltibia 16.8723
lfoot -10.9966 2.87152
ltoes -6.8925
116
root 0.58591 17.5313 -13.9956 5.13364 0.273371 -1.74937
lowerback -3.72085 -0.788257 0.887252
upperback 1.69584 -1.16551 1.81906
thorax 3.85507 -0.581629 1.29606
lowerneck -13.1534 -0.218319 -2.53637
upperneck 4.15786 0.0641161 0.869034
head 3.71713 0.0254937 0.750002
rclavicle -6.41081e-015 4.77083e-015
rhumerus -25.5321 -20.5149 -79.0689
rradius 24.342
rwrist 34.1735
rhand -17.0444 -26.974
rfingers 7.12502
rthumb 9.19249 -56.7537
lclavicle -6.41081e-015 4.77083e-015
lhumerus -23.1892 -2.62138 89.9153
lradius 19.778
lwrist 3.55679
lhand -24.312 -2.90333
lfingers 7.12502
lthumb 2.17602 27.0653
rfemur -11.1249 -2.9774 19.7292
rtibia 19.6514
rfoot -13.0101 -2.23891
rtoes 3.29896
lfemur -9.89754 8.65451 -17.8
ltibia 16.9468
lfoot -11.0048 2.87414
ltoes -6.89233
117
root 0.586965 17.5301 -14.0024 5.14954 0.296149 -1.74033
lowerback -3.65506 -0.791955 0.888223
upperback 1.70419 -1.16911 1.81409
thorax 3.82642 -0.583386 1.29095
lowerneck -13.1916 -0.22125 -2.53556
upperneck 4.26405 0.0625793 0.851599
head 3.76242 0.0232165 0.744686
rclavicle 7.95139e-016 7.55382e-015
rhumerus -25.4992 -20.4949 -79.0753
rradius 24.3537
rwrist 34.1761
rhand -17.0599 -26.9481
rfingers 7.12502
rthumb 9.17754 -56.7284
lclavicle 7.95139e-016 7.55382e-015
lhumerus -23.1768 -2.6649 89.9034
lradius 19.8101
lwrist 3.5946
lhand -24.3063 -2.94789
lfingers 7.12502
lthumb 2.18154 27.0207
rfemur -11.2005 -2.94424 19.7175
rtibia 19.721
rfoot -13.014 -2.29196
rtoes 3.26212
lfemur -9.9896 8.63196 -17.8214
ltibia 17.0316
lfoot -11.0146 2.88043
ltoes -6.89794
118
root 0.588096 17.5289 -14.01 5.17066 0.322883 -1.73234
lowerback -3.58373 -0.795598 0.8924
upperback 1.714 -1.17269 1.80853
thorax 3.79608 -0.585053 1.2835
lowerneck -13.2314 -0.227081 -2.53721
upperneck 4.36988 0.057366 0.837982
head 3.80808 0.0192507 0.740816
rclavicle -2.30093e-014 2.8625e-014
rhumerus -25.4638 -20.4547 -79.0923
rradius 24.3888
rwrist 34.131
rhand -17.0569 -26.954
rfingers 7.12502
rthumb 9.18046 -56.7342
lclavicle -2.30093e-014 2.8625e-014
lhumerus -23.1611 -2.69827 89.8854
lradius 19.8524
lwrist 3.62494
lhand -24.2875 -2.98767
lfingers 7.12502
lthumb 2.19965 26.9807
rfemur -11.2901 -2.91052 19.7075
rtibia 19.8015
rfoot -13.0185 -2.34979
rtoes 3.23081
lfemur -10.0987 8.60662 -17.8433
ltibia 17.1314
lfoot -11.027 2.88805
ltoes -6.92376
119
root 0.58928 17.5274 -14.0186 5.19766 0.350638 -1.72898
lowerback -3.50675 -0.797916 0.901875
upperback 1.72685 -1.17476 1.80406
thorax 3.76558 -0.585852 1.2744
lowerneck -13.2745 -0.236225 -2.54452
upperneck 4.47325 0.0483081 0.830593
head 3.85374 0.0135887 0.739762
rclavicle 5.46658e-016 -5.56597e-015
rhumerus -25.4233 -20.3995 -79.1174
rradius 24.4423
rwrist 34.0566
rhand -17.0485 -26.9712
rfingers 7.12502
rthumb 9.18856 -56.751
lclavicle 5.46658e-016 -5.56597e-015
lhumerus -23.1394 -2.72164 89.8634
lradius 19.9064
lwrist 3.66103
lhand -24.2604 -3.02236
lfingers 7.12502
lthumb 2.22583 26.9458
rfemur -11.3953 -2.87718 19.7032
rtibia 19.8919
rfoot -13.0221 -2.40992
rtoes 3.19838
lfemur -10.2285 8.57809 -17.8616
ltibia 17.2519
lfoot -11.0435 2.90143
ltoes -6.9624
120
root 0.590461 17.5256 -14.0282 5.23056 0.381155 -1.73161
lowerback -3.421 -0.799856 0.91727
upperback 1.74126 -1.17653 1.80166
thorax 3.73167 -0.586391 1.26424
lowerneck -13.3222 -0.247039 -2.55756
upperneck 4.57786 0.0376728 0.829058
head 3.9009 0.00730836 0.741613
rclavicle -8.59744e-015 -7.95139e-016
rhumerus -25.3817 -20.3121 -79.1532
rradius 24.5204
rwrist 33.9365
rhand -17.0288 -27.0055
rfingers 7.12502
rthumb 9.20755 -56.7844
lclavicle -8.59744e-015 -7.95139e-016
lhumerus -23.118 -2.73979 89.839
lradius 19.9793
lwrist 3.71717
lhand -24.2292 -3.04486
lfingers 7.12502
lthumb 2.25596 26.923
rfemur -11.5154 -2.84344 19.7065
rtibia 19.9918
rfoot -13.0261 -2.47524
rtoes 3.15648
lfemur -10.3817 8.54413 -17.8742
ltibia 17.3975
lfoot -11.065 2.91985
ltoes -7.00422
